<svg width="34" height="35" viewBox="0 0 34 35" fill="none" xmlns="http://www.w3.org/2000/svg">
<path d="M20.5417 6.16669H13.4583L9.91667 10.4167H5.66667C4.91522 10.4167 4.19455 10.7152 3.6632 11.2465C3.13184 11.7779 2.83333 12.4986 2.83333 13.25V26C2.83333 26.7515 3.13184 27.4721 3.6632 28.0035C4.19455 28.5348 4.91522 28.8333 5.66667 28.8333H28.3333C29.0848 28.8333 29.8055 28.5348 30.3368 28.0035C30.8682 27.4721 31.1667 26.7515 31.1667 26V13.25C31.1667 12.4986 30.8682 11.7779 30.3368 11.2465C29.8055 10.7152 29.0848 10.4167 28.3333 10.4167H24.0833L20.5417 6.16669Z" stroke="white" stroke-width="2" stroke-linecap="round" stroke-linejoin="round"/>
<path d="M17 23.1667C19.3472 23.1667 21.25 21.2639 21.25 18.9167C21.25 16.5695 19.3472 14.6667 17 14.6667C14.6528 14.6667 12.75 16.5695 12.75 18.9167C12.75 21.2639 14.6528 23.1667 17 23.1667Z" stroke="white" stroke-width="2" stroke-linecap="round" stroke-linejoin="round"/>
</svg>
