<svg width="31" height="31" viewBox="0 0 31 31" fill="none" xmlns="http://www.w3.org/2000/svg">
<rect width="31" height="31" rx="15.5" fill="#585858"/>
<path d="M17.375 9.5H13.625L11.75 11.75H9.5C9.10218 11.75 8.72064 11.908 8.43934 12.1893C8.15804 12.4706 8 12.8522 8 13.25V20C8 20.3978 8.15804 20.7794 8.43934 21.0607C8.72064 21.342 9.10218 21.5 9.5 21.5H21.5C21.8978 21.5 22.2794 21.342 22.5607 21.0607C22.842 20.7794 23 20.3978 23 20V13.25C23 12.8522 22.842 12.4706 22.5607 12.1893C22.2794 11.908 21.8978 11.75 21.5 11.75H19.25L17.375 9.5Z" stroke="white" stroke-width="2" stroke-linecap="round" stroke-linejoin="round"/>
<path d="M15.5 18.5C16.7426 18.5 17.75 17.4926 17.75 16.25C17.75 15.0074 16.7426 14 15.5 14C14.2574 14 13.25 15.0074 13.25 16.25C13.25 17.4926 14.2574 18.5 15.5 18.5Z" stroke="white" stroke-width="2" stroke-linecap="round" stroke-linejoin="round"/>
</svg>
