<svg width="34" height="34" viewBox="0 0 34 34" fill="none" xmlns="http://www.w3.org/2000/svg">
<path d="M25.5 31.1666H5.66667C4.91522 31.1666 4.19455 30.8681 3.6632 30.3368C3.13184 29.8054 2.83333 29.0848 2.83333 28.3333V8.49998M31.1667 18.4166L29.3307 16.5806C28.6904 15.9405 27.8221 15.5808 26.9167 15.5808C26.0113 15.5808 25.1429 15.9405 24.5027 16.5806L15.5833 25.5M19.8333 11.3333C19.8333 12.8981 18.5648 14.1666 17 14.1666C15.4352 14.1666 14.1667 12.8981 14.1667 11.3333C14.1667 9.76851 15.4352 8.49998 17 8.49998C18.5648 8.49998 19.8333 9.76851 19.8333 11.3333ZM11.3333 2.83331H28.3333C29.8981 2.83331 31.1667 4.10184 31.1667 5.66665V22.6666C31.1667 24.2315 29.8981 25.5 28.3333 25.5H11.3333C9.76853 25.5 8.5 24.2315 8.5 22.6666V5.66665C8.5 4.10184 9.76853 2.83331 11.3333 2.83331Z" stroke="white" stroke-width="2" stroke-linecap="round" stroke-linejoin="round"/>
</svg>
