<svg width="27" height="19" viewBox="0 0 27 19" fill="none" xmlns="http://www.w3.org/2000/svg">
<path d="M15.6667 16.5V10.6051C15.6667 10.4097 15.5906 10.2222 15.4551 10.0841C15.3197 9.94587 15.136 9.86824 14.9444 9.86824H12.0556C11.864 9.86824 11.6803 9.94587 11.5449 10.0841C11.4094 10.2222 11.3333 10.4097 11.3333 10.6051V16.5M7 8.39451C6.99995 8.18014 7.04574 7.96833 7.13418 7.77387C7.22262 7.57941 7.35158 7.40697 7.51206 7.26859L12.5676 2.84815C12.8283 2.62334 13.1586 2.5 13.5 2.5C13.8414 2.5 14.1717 2.62334 14.4324 2.84815L19.4879 7.26859C19.6484 7.40697 19.7774 7.57941 19.8658 7.77387C19.9543 7.96833 20.0001 8.18014 20 8.39451V15.0263C20 15.4171 19.8478 15.792 19.5769 16.0684C19.306 16.3447 18.9386 16.5 18.5556 16.5H8.44444C8.06135 16.5 7.69395 16.3447 7.42307 16.0684C7.15218 15.792 7 15.4171 7 15.0263V8.39451Z" stroke="#585858" stroke-width="2" stroke-linecap="round" stroke-linejoin="round"/>
</svg>
