<svg width="13" height="12" viewBox="0 0 13 12" fill="none" xmlns="http://www.w3.org/2000/svg">
<path d="M0.272014 5.97677C0.276304 6.44058 0.463181 6.88402 0.79215 7.211L4.57416 11.0018C4.73933 11.166 4.96277 11.2582 5.19568 11.2582C5.42858 11.2582 5.65202 11.166 5.81719 11.0018C5.89982 10.9199 5.96541 10.8224 6.01017 10.7149C6.05492 10.6075 6.07797 10.4923 6.07797 10.3759C6.07797 10.2595 6.05492 10.1443 6.01017 10.0369C5.96541 9.92943 5.89982 9.83192 5.81719 9.74997L2.91677 6.85836L11.7326 6.85836C11.9665 6.85836 12.1907 6.76548 12.356 6.60015C12.5213 6.43482 12.6142 6.21059 12.6142 5.97677C12.6142 5.74296 12.5213 5.51873 12.356 5.3534C12.1907 5.18807 11.9665 5.09519 11.7326 5.09519L2.91677 5.09519L5.81719 2.19477C5.9832 2.02993 6.07693 1.8059 6.07775 1.57196C6.07858 1.33802 5.98644 1.11333 5.8216 0.947321C5.65676 0.781315 5.43273 0.687588 5.19879 0.686761C4.96485 0.685935 4.74016 0.778076 4.57416 0.942913L0.79215 4.73374C0.461037 5.06288 0.273982 5.50991 0.272014 5.97677Z" fill="white"/>
</svg>
