<svg width="26" height="27" viewBox="0 0 26 27" fill="none" xmlns="http://www.w3.org/2000/svg">
  <path d="M9.30583 15.1359L16.705 19.4475M16.6942 7.55252L9.30583 11.8642M22.75 5.91669C22.75 7.71161 21.2949 9.16669 19.5 9.16669C17.7051 9.16669 16.25 7.71161 16.25 5.91669C16.25 4.12176 17.7051 2.66669 19.5 2.66669C21.2949 2.66669 22.75 4.12176 22.75 5.91669ZM9.75 13.5C9.75 15.2949 8.29493 16.75 6.5 16.75C4.70507 16.75 3.25 15.2949 3.25 13.5C3.25 11.7051 4.70507 10.25 6.5 10.25C8.29493 10.25 9.75 11.7051 9.75 13.5ZM22.75 21.0834C22.75 22.8783 21.2949 24.3334 19.5 24.3334C17.7051 24.3334 16.25 22.8783 16.25 21.0834C16.25 19.2884 17.7051 17.8334 19.5 17.8334C21.2949 17.8334 22.75 19.2884 22.75 21.0834Z" stroke="white" stroke-width="2" stroke-linecap="round" stroke-linejoin="round"/>
</svg>