<svg width="16" height="16" viewBox="0 0 16 16" fill="none" xmlns="http://www.w3.org/2000/svg">
<path d="M5.99996 8L7.33329 9.33334L9.99996 6.66667M13.3333 8.66667C13.3333 12 11 13.6667 8.22662 14.6333C8.0814 14.6825 7.92365 14.6802 7.77996 14.6267C4.99996 13.6667 2.66663 12 2.66663 8.66667V4C2.66663 3.82319 2.73686 3.65362 2.86189 3.5286C2.98691 3.40358 3.15648 3.33334 3.33329 3.33334C4.66663 3.33334 6.33329 2.53334 7.49329 1.52C7.63453 1.39934 7.81419 1.33304 7.99996 1.33304C8.18572 1.33304 8.36539 1.39934 8.50662 1.52C9.67329 2.54 11.3333 3.33334 12.6666 3.33334C12.8434 3.33334 13.013 3.40358 13.138 3.5286C13.2631 3.65362 13.3333 3.82319 13.3333 4V8.66667Z" stroke="#585858" stroke-width="2" stroke-linecap="round" stroke-linejoin="round"/>
</svg>
